<?xml version="1.0" standalone="no"?>
<!DOCTYPE svg PUBLIC "-//W3C//DTD SVG 20010904//EN"
 "http://www.w3.org/TR/2001/REC-SVG-20010904/DTD/svg10.dtd">
<svg version="1.0" xmlns="http://www.w3.org/2000/svg"
 width="1200.000000pt" height="1200.000000pt" viewBox="0 0 1200.000000 1200.000000"
 preserveAspectRatio="xMidYMid meet">

<g transform="translate(0.000000,1200.000000) scale(0.100000,-0.100000)"
fill="#000000" stroke="none">
<path d="M570 10246 c-70 -18 -129 -64 -164 -126 l-31 -55 -3 -3237 -2 -3238
5630 0 5630 0 0 3229 0 3229 -33 64 c-38 74 -98 120 -177 137 -78 17 -10789
14 -10850 -3z m10680 -3321 l0 -2955 -5250 0 -5250 0 0 2948 c0 1622 3 2952 7
2955 3 4 2366 7 5250 7 l5243 0 0 -2955z"/>
<path d="M5737 9194 c-4 -4 -7 -88 -7 -186 l0 -178 -107 -1 c-60 -1 -117 -2
-128 -3 -18 -1 -20 -9 -23 -93 l-3 -93 226 0 225 0 -2 278 -3 277 -85 3 c-47
1 -89 0 -93 -4z"/>
<path d="M6017 9194 c-4 -4 -7 -34 -7 -67 0 -65 -12 -49 173 -243 37 -39 67
-76 67 -82 0 -9 -35 -12 -120 -12 l-120 0 0 -75 0 -75 265 0 265 0 0 63 0 63
-122 133 c-68 73 -124 137 -126 142 -2 5 51 9 118 9 l121 0 -3 73 -3 72 -251
3 c-138 1 -253 -1 -257 -4z"/>
<path d="M1460 8320 l0 -280 95 0 94 0 3 92 3 92 70 -2 c39 0 76 -1 83 -2 9 0
12 -25 12 -90 l0 -90 95 0 95 0 0 280 0 280 -95 0 -95 0 0 -95 0 -96 -82 3
-83 3 -3 93 -3 92 -94 0 -95 0 0 -280z"/>
<path d="M2090 8506 l0 -95 83 -3 82 -3 3 -182 2 -183 90 0 90 0 0 185 0 184
83 3 82 3 0 90 0 90 -257 3 -258 2 0 -94z"/>
<path d="M2690 8320 l0 -280 95 0 95 0 -3 130 c-1 72 0 130 3 130 3 0 29 -38
58 -85 29 -47 57 -87 62 -90 4 -3 34 36 66 85 32 50 61 90 64 90 3 0 5 -57 5
-127 l0 -128 93 -3 92 -3 0 281 0 280 -97 0 -98 -1 -59 -96 c-68 -110 -55
-112 -134 20 l-46 77 -98 0 -98 0 0 -280z"/>
<path d="M3417 8593 c-9 -8 -9 -516 -1 -537 5 -14 35 -16 230 -16 l224 0 0 90
0 89 -132 3 -133 3 -3 188 -2 187 -89 0 c-48 0 -91 -3 -94 -7z"/>
<path d="M8500 8320 l0 -280 225 0 226 0 -3 78 -3 77 -127 3 -128 3 0 119 0
120 130 0 130 0 0 80 0 80 -225 0 -225 0 0 -280z"/>
<path d="M9050 8531 c0 -66 2 -71 36 -108 100 -106 204 -222 204 -227 0 -3
-54 -6 -120 -6 l-120 0 0 -75 0 -75 260 0 260 0 0 66 0 65 -57 62 c-32 34 -85
90 -118 125 -92 97 -94 92 45 92 l120 0 0 75 0 75 -255 0 -255 0 0 -69z"/>
<path d="M9667 8593 c-4 -3 -7 -32 -7 -64 l0 -58 115 -125 c63 -69 120 -128
125 -131 30 -18 -1 -25 -115 -25 l-125 0 0 -75 0 -75 265 0 265 0 0 63 0 62
-125 137 c-69 75 -125 139 -125 142 0 4 54 6 120 6 l120 0 0 75 0 75 -253 0
c-140 0 -257 -3 -260 -7z"/>
<path d="M1199 7775 c-3 -2 3 -80 12 -172 9 -92 22 -233 28 -313 7 -80 23
-264 36 -410 24 -255 47 -513 80 -895 9 -99 31 -351 50 -560 19 -209 39 -438
45 -510 6 -71 14 -133 18 -136 4 -4 45 -16 92 -28 118 -31 290 -78 385 -106
44 -13 157 -44 250 -70 94 -25 234 -65 313 -87 l143 -40 67 16 c37 9 90 22
117 30 28 8 174 49 325 91 151 43 313 88 360 101 47 13 139 38 205 55 66 17
126 38 133 47 6 9 12 37 12 62 0 26 16 217 35 426 20 208 40 435 46 504 5 69
21 244 35 390 13 146 29 324 34 395 6 72 19 220 30 330 11 110 27 286 35 390
19 242 34 399 41 453 l6 42 -1464 0 c-806 0 -1467 -2 -1469 -5z m2656 -272
c-2 -16 -6 -84 -10 -153 -3 -69 -10 -143 -15 -165 -5 -22 -14 -107 -20 -190
-6 -82 -15 -188 -21 -235 -5 -47 -11 -125 -15 -175 -3 -49 -10 -130 -14 -180
-18 -198 -31 -340 -51 -545 -11 -118 -24 -264 -29 -325 -25 -297 -51 -568 -55
-573 -2 -2 -33 -4 -71 -5 -37 -1 -60 -3 -51 -5 44 -9 -10 -27 -138 -49 -16 -2
-44 -11 -62 -19 -17 -8 -37 -14 -45 -14 -7 0 -40 -10 -73 -21 -33 -12 -76 -25
-95 -30 -107 -25 -166 -40 -265 -69 -60 -17 -120 -33 -132 -37 l-23 -5 0 166
c0 91 0 169 0 174 -1 4 10 9 22 11 13 1 25 6 28 10 3 4 28 13 55 19 28 6 93
22 145 37 52 14 101 27 108 27 13 1 17 18 5 18 -5 0 -89 -23 -187 -50 l-179
-49 -111 31 c-61 17 -165 46 -231 64 -66 19 -161 45 -211 58 -80 21 -204 57
-212 61 -5 3 -41 412 -44 500 l-3 90 183 1 c100 1 184 -1 186 -5 3 -4 10 -71
17 -149 l12 -142 66 -19 c36 -10 127 -35 201 -55 l135 -36 105 30 c58 17 116
33 130 36 60 13 164 44 171 51 3 5 12 85 18 178 6 94 14 193 17 220 l6 50
-193 2 c-107 1 -393 4 -635 8 l-442 6 -6 52 c-3 29 -13 133 -21 232 -9 99 -27
306 -41 460 -14 154 -26 301 -27 326 l-2 47 928 7 927 7 -1 -53 c0 -30 -6
-108 -12 -174 -8 -81 -9 -127 -2 -142 14 -32 27 -29 15 3 -6 14 -10 44 -9 67
0 31 2 37 8 22 9 -21 13 249 5 277 -5 15 -42 17 -462 17 l-457 1 -3 165 -2
165 594 0 594 0 -3 -27z m-1143 -1481 c-7 -5 14 -7 45 -5 32 1 119 4 194 6
l137 3 -5 -60 c-2 -34 -9 -72 -13 -86 -5 -14 -8 -54 -6 -90 2 -42 0 -58 -6
-45 -5 13 -7 1 -4 -35 7 -94 0 -115 -42 -126 -21 -5 -53 -7 -72 -3 -41 9 -53
3 -19 -9 21 -8 18 -11 -29 -21 -29 -6 -59 -11 -67 -11 -7 0 -15 -4 -17 -9 -1
-5 -16 -12 -33 -15 -16 -3 -48 -10 -70 -15 -22 -5 -42 -7 -45 -4 -3 3 0 7 5 9
6 3 9 98 8 264 l-2 260 27 0 c17 0 22 -3 14 -8z"/>
<path d="M3792 7145 c0 -16 2 -22 5 -12 2 9 2 23 0 30 -3 6 -5 -1 -5 -18z"/>
<path d="M3591 6864 c0 -11 3 -14 6 -6 3 7 2 16 -1 19 -3 4 -6 -2 -5 -13z"/>
<path d="M2150 6783 c0 -30 21 -285 26 -315 l6 -38 671 1 c370 0 666 3 659 6
-6 2 -10 9 -6 14 3 5 -1 9 -10 9 -8 0 -16 -6 -19 -12 -3 -10 -9 -10 -26 0 -27
15 -736 18 -726 2 3 -5 2 -10 -4 -10 -5 0 -11 6 -14 13 -3 9 -7 9 -19 -1 -10
-8 -17 -9 -20 -3 -1 6 -2 76 0 156 l3 145 32 1 c30 2 30 2 -8 9 -22 4 174 8
435 9 276 2 467 6 455 11 -25 11 -1435 13 -1435 3z m1273 -340 c-13 -2 -33 -2
-45 0 -13 2 -3 4 22 4 25 0 35 -2 23 -4z"/>
<path d="M3578 6743 c7 -3 16 -2 19 1 4 3 -2 6 -13 5 -11 0 -14 -3 -6 -6z"/>
<path d="M2918 6733 c111 -2 293 -2 405 0 111 1 20 2 -203 2 -223 0 -314 -1
-202 -2z"/>
<path d="M3448 6473 c7 -3 16 -2 19 1 4 3 -2 6 -13 5 -11 0 -14 -3 -6 -6z"/>
<path d="M3543 6452 c-11 -24 -26 -156 -63 -562 -6 -58 -15 -172 -20 -255 -5
-82 -12 -167 -15 -187 -14 -102 -15 -139 -6 -155 8 -15 11 -11 11 22 2 86 10
203 19 270 5 39 13 124 17 190 5 70 10 108 14 90 3 -16 6 22 7 85 1 63 7 167
14 230 6 63 12 126 13 140 1 14 5 32 8 40 6 15 19 120 15 120 -1 0 -8 -12 -14
-28z"/>
<path d="M3571 6384 c0 -11 3 -14 6 -6 3 7 2 16 -1 19 -3 4 -6 -2 -5 -13z"/>
<path d="M3553 6295 c0 -33 2 -45 4 -27 2 18 2 45 0 60 -2 15 -4 0 -4 -33z"/>
<path d="M3712 6275 c0 -16 2 -22 5 -12 2 9 2 23 0 30 -3 6 -5 -1 -5 -18z"/>
<path d="M3493 5720 c0 -25 2 -35 4 -22 2 12 2 32 0 45 -2 12 -4 2 -4 -23z"/>
<path d="M3511 5744 c0 -11 3 -14 6 -6 3 7 2 16 -1 19 -3 4 -6 -2 -5 -13z"/>
<path d="M3491 5620 c0 -8 4 -24 9 -35 5 -13 9 -14 9 -5 0 8 -4 24 -9 35 -5
13 -9 14 -9 5z"/>
<path d="M3483 5500 c0 -36 2 -50 4 -32 2 17 2 47 0 65 -2 17 -4 3 -4 -33z"/>
<path d="M3503 5480 c0 -25 2 -35 4 -22 2 12 2 32 0 45 -2 12 -4 2 -4 -23z"/>
<path d="M3409 5280 c-9 -5 -51 -19 -95 -30 -43 -12 -86 -24 -94 -27 -8 -3
-22 -7 -30 -8 -37 -5 -140 -40 -140 -48 0 -5 12 -6 27 -3 17 5 29 3 35 -6 7
-9 8 -8 4 5 -4 13 0 17 19 17 13 0 26 4 29 9 3 5 26 12 51 15 24 4 47 11 50
16 3 5 12 7 19 4 8 -3 17 -1 21 5 8 14 45 14 45 1 0 -5 8 -10 17 -10 15 0 15
1 -2 14 -17 12 -16 14 17 20 20 4 39 13 42 21 6 17 6 17 -15 5z"/>
<path d="M3420 5220 c0 -5 5 -10 10 -10 6 0 10 5 10 10 0 6 -4 10 -10 10 -5 0
-10 -4 -10 -10z"/>
<path d="M3315 5210 c3 -5 16 -10 28 -9 21 0 21 1 2 9 -28 12 -37 12 -30 0z"/>
<path d="M3388 5203 c7 -3 16 -2 19 1 4 3 -2 6 -13 5 -11 0 -14 -3 -6 -6z"/>
<path d="M3175 5150 c-3 -5 1 -10 9 -10 9 0 16 5 16 10 0 6 -4 10 -9 10 -6 0
-13 -4 -16 -10z"/>
<path d="M3065 5140 c11 -5 27 -9 35 -9 13 -1 13 0 0 9 -8 5 -24 9 -35 9 l-20
0 20 -9z"/>
<path d="M2998 5123 c7 -3 16 -2 19 1 4 3 -2 6 -13 5 -11 0 -14 -3 -6 -6z"/>
<path d="M2835 5080 c-13 -5 -14 -9 -5 -9 8 0 24 4 35 9 13 5 14 9 5 9 -8 0
-24 -4 -35 -9z"/>
<path d="M2780 5076 c0 -2 7 -7 16 -10 8 -3 12 -2 9 4 -6 10 -25 14 -25 6z"/>
<path d="M3110 4870 c8 -5 20 -10 25 -10 6 0 3 5 -5 10 -8 5 -19 10 -25 10 -5
0 -3 -5 5 -10z"/>
<path d="M2828 5593 c7 -3 16 -2 19 1 4 3 -2 6 -13 5 -11 0 -14 -3 -6 -6z"/>
<path d="M2870 5575 c7 -8 17 -15 22 -15 5 0 3 7 -6 15 -8 8 -18 15 -22 15 -3
0 -1 -7 6 -15z"/>
<path d="M7879 7775 c-3 -2 -2 -37 2 -77 5 -39 15 -158 24 -262 8 -105 26
-312 40 -461 14 -148 32 -349 40 -445 14 -168 37 -420 90 -1005 14 -148 34
-376 45 -505 11 -129 24 -237 28 -241 4 -3 45 -16 92 -28 47 -13 130 -35 185
-51 115 -33 292 -82 485 -135 74 -21 187 -53 251 -71 177 -51 175 -51 334 -6
77 22 201 57 275 77 255 70 425 117 505 140 44 13 118 33 165 45 47 13 90 28
96 34 6 6 17 82 23 171 6 88 25 300 40 470 16 171 34 366 40 435 5 69 21 251
35 405 28 301 33 362 71 790 33 379 55 609 62 673 l5 52 -1464 0 c-806 0
-1467 -2 -1469 -5z m2658 -252 c4 -9 -6 -150 -20 -312 -15 -163 -34 -372 -42
-466 -8 -93 -19 -217 -25 -275 -6 -58 -22 -231 -35 -385 -13 -154 -31 -354
-40 -445 -8 -91 -20 -223 -25 -295 -6 -71 -16 -186 -23 -254 l-12 -125 -80
-21 c-88 -24 -274 -76 -490 -136 -254 -71 -394 -106 -400 -101 -3 3 -5 92 -5
197 l0 193 -82 25 c-46 14 -168 49 -273 77 -295 81 -387 108 -396 117 -4 4
-12 64 -19 133 -21 233 -31 355 -33 400 l-2 45 187 3 186 2 6 -37 c3 -21 8
-87 12 -146 6 -98 9 -109 28 -117 29 -12 361 -100 378 -100 10 0 13 55 13 285
l0 285 -202 0 c-111 0 -204 4 -207 8 -4 7 -36 327 -36 364 0 4 99 9 221 10
l220 3 0 180 0 180 -445 3 c-246 1 -446 6 -447 10 0 4 -8 87 -18 185 -9 98
-15 180 -12 182 2 3 212 5 465 5 l461 0 -3 156 c-2 87 -1 163 2 171 5 11 106
13 596 13 542 -1 591 -2 597 -17z"/>
<path d="M3861 1086 c-35 -19 -50 -54 -51 -113 l0 -53 2190 0 2190 0 0 56 c0
66 -10 89 -50 109 -26 13 -276 15 -2142 15 -1735 -1 -2117 -3 -2137 -14z"/>
</g>
</svg>
